M48
; DRILL file {KiCad 9.0.6} date 2025-12-07T14:48:02+0000
; FORMAT={-:-/ absolute / metric / decimal}
; #@! TF.CreationDate,2025-12-07T14:48:02+00:00
; #@! TF.GenerationSoftware,Kicad,Pcbnew,9.0.6
; #@! TF.FileFunction,NonPlated,1,2,NPTH
FMAT,2
METRIC
; #@! TA.AperFunction,NonPlated,NPTH,ComponentDrill
T1C1.700
; #@! TA.AperFunction,NonPlated,NPTH,ComponentDrill
T2C4.000
%
G90
G05
T1
X108.268Y-71.597
X108.268Y-90.647
X108.268Y-109.697
X118.428Y-71.597
X118.428Y-90.647
X118.428Y-109.697
X127.318Y-71.597
X127.318Y-90.647
X127.318Y-109.697
X137.478Y-71.597
X137.478Y-90.647
X137.478Y-109.697
X146.368Y-71.597
X146.368Y-90.647
X146.368Y-109.697
X156.528Y-71.597
X156.528Y-90.647
X156.528Y-109.697
T2
X113.348Y-71.597
X113.348Y-90.647
X113.348Y-109.697
X132.398Y-71.597
X132.398Y-90.647
X132.398Y-109.697
X151.448Y-71.597
X151.448Y-90.647
X151.448Y-109.697
M30
