%TF.GenerationSoftware,KiCad,Pcbnew,9.0.6*%
%TF.CreationDate,2025-12-07T14:47:38+00:00*%
%TF.ProjectId,RP-00,52502d30-302e-46b6-9963-61645f706362,rev?*%
%TF.SameCoordinates,Original*%
%TF.FileFunction,Paste,Top*%
%TF.FilePolarity,Positive*%
%FSLAX46Y46*%
G04 Gerber Fmt 4.6, Leading zero omitted, Abs format (unit mm)*
G04 Created by KiCad (PCBNEW 9.0.6) date 2025-12-07 14:47:38*
%MOMM*%
%LPD*%
G01*
G04 APERTURE LIST*
%ADD10R,0.850000X1.600000*%
G04 APERTURE END LIST*
D10*
%TO.C,D11*%
X142797528Y-107946306D03*
X141047528Y-107946306D03*
X141047528Y-111446306D03*
X142797528Y-111446306D03*
%TD*%
%TO.C,D9*%
X104697496Y-107946306D03*
X102947496Y-107946306D03*
X102947496Y-111446306D03*
X104697496Y-111446306D03*
%TD*%
%TO.C,D10*%
X123747512Y-107946306D03*
X121997512Y-107946306D03*
X121997512Y-111446306D03*
X123747512Y-111446306D03*
%TD*%
%TO.C,D2*%
X123747512Y-69846274D03*
X121997512Y-69846274D03*
X121997512Y-73346274D03*
X123747512Y-73346274D03*
%TD*%
%TO.C,D5*%
X104697496Y-88896290D03*
X102947496Y-88896290D03*
X102947496Y-92396290D03*
X104697496Y-92396290D03*
%TD*%
%TO.C,D12*%
X161847544Y-107946306D03*
X160097544Y-107946306D03*
X160097544Y-111446306D03*
X161847544Y-111446306D03*
%TD*%
%TO.C,D3*%
X142797528Y-69846274D03*
X141047528Y-69846274D03*
X141047528Y-73346274D03*
X142797528Y-73346274D03*
%TD*%
%TO.C,D7*%
X142797528Y-88896290D03*
X141047528Y-88896290D03*
X141047528Y-92396290D03*
X142797528Y-92396290D03*
%TD*%
%TO.C,D8*%
X161847544Y-88896290D03*
X160097544Y-88896290D03*
X160097544Y-92396290D03*
X161847544Y-92396290D03*
%TD*%
%TO.C,D6*%
X123747512Y-88896290D03*
X121997512Y-88896290D03*
X121997512Y-92396290D03*
X123747512Y-92396290D03*
%TD*%
%TO.C,D1*%
X104697496Y-69846274D03*
X102947496Y-69846274D03*
X102947496Y-73346274D03*
X104697496Y-73346274D03*
%TD*%
%TO.C,D4*%
X161847544Y-69846274D03*
X160097544Y-69846274D03*
X160097544Y-73346274D03*
X161847544Y-73346274D03*
%TD*%
M02*
