M48
; DRILL file {KiCad 9.0.6} date 2025-12-07T14:48:02+0000
; FORMAT={-:-/ absolute / metric / decimal}
; #@! TF.CreationDate,2025-12-07T14:48:02+00:00
; #@! TF.GenerationSoftware,Kicad,Pcbnew,9.0.6
; #@! TF.FileFunction,Plated,1,2,PTH
FMAT,2
METRIC
; #@! TA.AperFunction,Plated,PTH,ViaDrill
T1C0.300
; #@! TA.AperFunction,Plated,PTH,ComponentDrill
T2C0.700
; #@! TA.AperFunction,Plated,PTH,ComponentDrill
T3C0.800
; #@! TA.AperFunction,Plated,PTH,ComponentDrill
T4C0.889
; #@! TA.AperFunction,Plated,PTH,ComponentDrill
T5C1.000
; #@! TA.AperFunction,Plated,PTH,ComponentDrill
T6C1.500
%
G90
G05
T1
X75.848Y-58.385
X76.439Y-45.402
X77.029Y-53.141
X77.034Y-61.471
X78.229Y-59.094
X85.368Y-61.07
X99.06Y-66.238
X100.251Y-63.857
X100.251Y-76.359
X100.846Y-91.837
X100.846Y-109.696
X102.632Y-66.838
X102.637Y-79.931
X102.637Y-82.907
X104.418Y-60.285
X105.013Y-65.638
X105.013Y-85.884
X105.013Y-104.338
X106.204Y-59.69
X106.804Y-59.099
X108.585Y-54.928
X110.371Y-65.438
X110.371Y-66.238
X110.966Y-59.099
X111.561Y-53.737
X113.352Y-47.784
X113.608Y-50.632
X118.105Y-64.457
X118.11Y-67.429
X118.11Y-106.124
X118.705Y-118.031
X119.301Y-104.338
X119.896Y-63.262
X119.896Y-88.265
X119.896Y-107.315
X120.834Y-63.263
X121.087Y-59.095
X122.151Y-64.579
X124.063Y-85.288
X124.063Y-101.957
X124.063Y-104.338
X124.654Y-63.257
X124.654Y-66.238
X124.654Y-104.938
X124.658Y-116.245
X125.254Y-60.881
X129.188Y-64.457
X129.421Y-65.638
X138.351Y-69.215
X138.399Y-63.905
X138.946Y-107.315
X139.541Y-88.86
X140.732Y-59.099
X142.518Y-60.881
X143.113Y-66.834
X143.113Y-85.288
X143.113Y-104.934
X154.588Y-76.359
X155.019Y-95.409
X155.615Y-63.857
X157.996Y-69.81
X157.996Y-88.86
X158.591Y-107.315
X159.187Y-68.029
X159.782Y-87.079
T2
X106.045Y-50.165
X107.831Y-41.235
X107.831Y-43.617
X111.125Y-50.165
X112.911Y-41.235
X112.911Y-43.617
T3
X109.538Y-62.071
X109.538Y-80.526
X109.538Y-100.171
X117.158Y-62.071
X117.158Y-80.526
X117.158Y-100.171
X128.588Y-62.071
X128.588Y-80.526
X128.588Y-100.171
X136.208Y-62.071
X136.208Y-80.526
X136.208Y-100.171
X147.638Y-62.071
X147.638Y-80.526
X147.638Y-100.171
X155.258Y-62.071
X155.258Y-80.526
X155.258Y-100.171
T4
X80.725Y-42.545
X80.725Y-45.085
X80.725Y-47.625
X80.725Y-50.165
X80.725Y-52.705
X80.725Y-55.245
X80.725Y-57.785
X95.965Y-42.545
X95.965Y-45.085
X95.965Y-47.625
X95.965Y-50.165
X95.965Y-52.705
X95.965Y-55.245
X95.965Y-57.785
T5
X116.568Y-43.263
X116.568Y-45.803
X116.568Y-48.343
X116.568Y-50.883
T6
X109.538Y-69.057
X109.538Y-88.107
X109.538Y-107.157
X115.888Y-66.517
X115.888Y-85.567
X115.888Y-104.617
X128.588Y-69.057
X128.588Y-88.107
X128.588Y-107.157
X134.938Y-66.517
X134.938Y-85.567
X134.938Y-104.617
X147.638Y-69.057
X147.638Y-88.107
X147.638Y-107.157
X153.988Y-66.517
X153.988Y-85.567
X153.988Y-104.617
M30
