%TF.GenerationSoftware,KiCad,Pcbnew,9.0.6*%
%TF.CreationDate,2025-12-07T14:47:39+00:00*%
%TF.ProjectId,RP-00,52502d30-302e-46b6-9963-61645f706362,rev?*%
%TF.SameCoordinates,Original*%
%TF.FileFunction,Soldermask,Top*%
%TF.FilePolarity,Negative*%
%FSLAX46Y46*%
G04 Gerber Fmt 4.6, Leading zero omitted, Abs format (unit mm)*
G04 Created by KiCad (PCBNEW 9.0.6) date 2025-12-07 14:47:39*
%MOMM*%
%LPD*%
G01*
G04 APERTURE LIST*
G04 Aperture macros list*
%AMRoundRect*
0 Rectangle with rounded corners*
0 $1 Rounding radius*
0 $2 $3 $4 $5 $6 $7 $8 $9 X,Y pos of 4 corners*
0 Add a 4 corners polygon primitive as box body*
4,1,4,$2,$3,$4,$5,$6,$7,$8,$9,$2,$3,0*
0 Add four circle primitives for the rounded corners*
1,1,$1+$1,$2,$3*
1,1,$1+$1,$4,$5*
1,1,$1+$1,$6,$7*
1,1,$1+$1,$8,$9*
0 Add four rect primitives between the rounded corners*
20,1,$1+$1,$2,$3,$4,$5,0*
20,1,$1+$1,$4,$5,$6,$7,0*
20,1,$1+$1,$6,$7,$8,$9,0*
20,1,$1+$1,$8,$9,$2,$3,0*%
G04 Aperture macros list end*
%ADD10C,1.400000*%
%ADD11R,0.850000X1.600000*%
%ADD12C,1.700000*%
%ADD13C,4.000000*%
%ADD14C,2.200000*%
%ADD15RoundRect,0.152400X1.063600X0.609600X-1.063600X0.609600X-1.063600X-0.609600X1.063600X-0.609600X0*%
%ADD16C,1.524000*%
%ADD17RoundRect,0.152400X-1.063600X-0.609600X1.063600X-0.609600X1.063600X0.609600X-1.063600X0.609600X0*%
%ADD18R,1.700000X1.700000*%
%ADD19O,1.700000X1.700000*%
%ADD20RoundRect,0.250000X0.550000X0.550000X-0.550000X0.550000X-0.550000X-0.550000X0.550000X-0.550000X0*%
%ADD21C,1.600000*%
G04 APERTURE END LIST*
D10*
%TO.C,R1*%
X106045000Y-50165150D03*
X111125000Y-50165150D03*
%TD*%
D11*
%TO.C,D11*%
X142797528Y-107946306D03*
X141047528Y-107946306D03*
X141047528Y-111446306D03*
X142797528Y-111446306D03*
%TD*%
%TO.C,D9*%
X104697496Y-107946306D03*
X102947496Y-107946306D03*
X102947496Y-111446306D03*
X104697496Y-111446306D03*
%TD*%
D10*
%TO.C,R2*%
X112910900Y-43616550D03*
X107830900Y-43616550D03*
%TD*%
D11*
%TO.C,D10*%
X123747512Y-107946306D03*
X121997512Y-107946306D03*
X121997512Y-111446306D03*
X123747512Y-111446306D03*
%TD*%
D12*
%TO.C,SW6*%
X127318000Y-109697250D03*
D13*
X132398000Y-109697250D03*
D12*
X137478000Y-109697250D03*
D14*
X134938000Y-104617250D03*
X128588000Y-107157250D03*
%TD*%
D12*
%TO.C,SW4*%
X127318000Y-71597250D03*
D13*
X132398000Y-71597250D03*
D12*
X137478000Y-71597250D03*
D14*
X134938000Y-66517250D03*
X128588000Y-69057250D03*
%TD*%
D10*
%TO.C,R3*%
X112910900Y-41235350D03*
X107830900Y-41235350D03*
%TD*%
D15*
%TO.C,U1*%
X79889800Y-42544850D03*
D16*
X80724800Y-42544850D03*
D15*
X79889800Y-45084850D03*
D16*
X80724800Y-45084850D03*
D15*
X79889800Y-47624850D03*
D16*
X80724800Y-47624850D03*
D15*
X79889800Y-50164850D03*
D16*
X80724800Y-50164850D03*
D15*
X79889800Y-52704850D03*
D16*
X80724800Y-52704850D03*
D15*
X79889800Y-55244850D03*
D16*
X80724800Y-55244850D03*
D15*
X79889800Y-57784850D03*
D16*
X80724800Y-57784850D03*
X95964800Y-57784850D03*
D17*
X96799800Y-57784850D03*
D16*
X95964800Y-55244850D03*
D17*
X96799800Y-55244850D03*
D16*
X95964800Y-52704850D03*
D17*
X96799800Y-52704850D03*
D16*
X95964800Y-50164850D03*
D17*
X96799800Y-50164850D03*
D16*
X95964800Y-47624850D03*
D17*
X96799800Y-47624850D03*
D16*
X95964800Y-45084850D03*
D17*
X96799800Y-45084850D03*
D16*
X95964800Y-42544850D03*
D17*
X96799800Y-42544850D03*
%TD*%
D11*
%TO.C,D2*%
X123747512Y-69846274D03*
X121997512Y-69846274D03*
X121997512Y-73346274D03*
X123747512Y-73346274D03*
%TD*%
D12*
%TO.C,SW5*%
X127318000Y-90647250D03*
D13*
X132398000Y-90647250D03*
D12*
X137478000Y-90647250D03*
D14*
X134938000Y-85567250D03*
X128588000Y-88107250D03*
%TD*%
D12*
%TO.C,SW9*%
X146368000Y-109697250D03*
D13*
X151448000Y-109697250D03*
D12*
X156528000Y-109697250D03*
D14*
X153988000Y-104617250D03*
X147638000Y-107157250D03*
%TD*%
D11*
%TO.C,D5*%
X104697496Y-88896290D03*
X102947496Y-88896290D03*
X102947496Y-92396290D03*
X104697496Y-92396290D03*
%TD*%
%TO.C,D12*%
X161847544Y-107946306D03*
X160097544Y-107946306D03*
X160097544Y-111446306D03*
X161847544Y-111446306D03*
%TD*%
D18*
%TO.C,J1*%
X116567900Y-50883350D03*
D19*
X116567900Y-48343350D03*
X116567900Y-45803350D03*
X116567900Y-43263350D03*
%TD*%
D11*
%TO.C,D3*%
X142797528Y-69846274D03*
X141047528Y-69846274D03*
X141047528Y-73346274D03*
X142797528Y-73346274D03*
%TD*%
%TO.C,D7*%
X142797528Y-88896290D03*
X141047528Y-88896290D03*
X141047528Y-92396290D03*
X142797528Y-92396290D03*
%TD*%
D12*
%TO.C,SW2*%
X108268000Y-90647250D03*
D13*
X113348000Y-90647250D03*
D12*
X118428000Y-90647250D03*
D14*
X115888000Y-85567250D03*
X109538000Y-88107250D03*
%TD*%
D12*
%TO.C,SW8*%
X146368000Y-90647250D03*
D13*
X151448000Y-90647250D03*
D12*
X156528000Y-90647250D03*
D14*
X153988000Y-85567250D03*
X147638000Y-88107250D03*
%TD*%
D12*
%TO.C,SW3*%
X108268000Y-109697250D03*
D13*
X113348000Y-109697250D03*
D12*
X118428000Y-109697250D03*
D14*
X115888000Y-104617250D03*
X109538000Y-107157250D03*
%TD*%
D12*
%TO.C,SW1*%
X108268000Y-71597250D03*
D13*
X113348000Y-71597250D03*
D12*
X118428000Y-71597250D03*
D14*
X115888000Y-66517250D03*
X109538000Y-69057250D03*
%TD*%
D12*
%TO.C,SW7*%
X146368000Y-71597250D03*
D13*
X151448000Y-71597250D03*
D12*
X156528000Y-71597250D03*
D14*
X153988000Y-66517250D03*
X147638000Y-69057250D03*
%TD*%
D11*
%TO.C,D8*%
X161847544Y-88896290D03*
X160097544Y-88896290D03*
X160097544Y-92396290D03*
X161847544Y-92396290D03*
%TD*%
%TO.C,D6*%
X123747512Y-88896290D03*
X121997512Y-88896290D03*
X121997512Y-92396290D03*
X123747512Y-92396290D03*
%TD*%
%TO.C,D1*%
X104697496Y-69846274D03*
X102947496Y-69846274D03*
X102947496Y-73346274D03*
X104697496Y-73346274D03*
%TD*%
%TO.C,D4*%
X161847544Y-69846274D03*
X160097544Y-69846274D03*
X160097544Y-73346274D03*
X161847544Y-73346274D03*
%TD*%
D20*
%TO.C,Diode3*%
X117157984Y-100171298D03*
D21*
X109537984Y-100171298D03*
%TD*%
D20*
%TO.C,Diode9*%
X155258016Y-100171298D03*
D21*
X147638016Y-100171298D03*
%TD*%
D20*
%TO.C,Diode8*%
X155258016Y-80525969D03*
D21*
X147638016Y-80525969D03*
%TD*%
D20*
%TO.C,Diode1*%
X117157504Y-62071266D03*
D21*
X109537504Y-62071266D03*
%TD*%
D20*
%TO.C,Diode4*%
X136208000Y-62071266D03*
D21*
X128588000Y-62071266D03*
%TD*%
D20*
%TO.C,Diode2*%
X117157984Y-80525969D03*
D21*
X109537984Y-80525969D03*
%TD*%
D20*
%TO.C,Diode5*%
X136208000Y-80525969D03*
D21*
X128588000Y-80525969D03*
%TD*%
D20*
%TO.C,Diode6*%
X136208000Y-100171298D03*
D21*
X128588000Y-100171298D03*
%TD*%
D20*
%TO.C,Diode7*%
X155258016Y-62071266D03*
D21*
X147638016Y-62071266D03*
%TD*%
M02*
